# xmcd CD database file
#
# Track frame offsets:
#	150
#	11378
#	24959
#	39393
#	52529
#	65210
#	77709
#	88753
#	102144
#	115204
#	128014
#	141961
#	153651
#	166404
#
# Disc length: 2384 seconds
#
# Revision: 2
# Processed by: cddbd v1.4PL0 Copyright (c) Steve Scherf et al.
# Submitted via: CDex 1.50beta9
#
DISCID=a9094e0e
DTITLE=Various Artist - A Capella
DYEAR=2001
DGENRE=Jazz
TTITLE0=Jesus, Jesus - The Spirt Of Menphis Quartet
TTITLE1=So Glad I've Got The Stone - Bethel Quartet
TTITLE2=Lord I've Tried - The Swan Silvertones
TTITLE3=Working On a Building - The Swan Silvertones
TTITLE4=You Better Let That Liar Alone - Silver Leaf Quartette Of Norfolk
TTITLE5=Go Ahead - The Pilgrim Travelers
TTITLE6=Light Of TheWorld - Dunham Jubilee Singers
TTITLE7=Does Jesus Care - The Soul Stirrers
TTITLE8=I Want To Rest - The Soul Stirrers
TTITLE9=I'm Willing To Run - The Soul Stirrers
TTITLE10=I Want To Rest - The Soul Stirrers
TTITLE11=Sleep On Mother - The Soul Stirrers
TTITLE12=Walk Around - The Soul Stirrers
TTITLE13=Run On  - Golden Gate Quartet
EXTD=YEAR: 2001
EXTT0=
EXTT1=
EXTT2=
EXTT3=
EXTT4=
EXTT5=
EXTT6=
EXTT7=
EXTT8=
EXTT9=
EXTT10=
EXTT11=
EXTT12=
EXTT13=
PLAYORDER=
